<?xml version="1.0" encoding="UTF-8" standalone="no"?>
<svg
   xmlns:dc="http://purl.org/dc/elements/1.1/"
   xmlns:cc="http://creativecommons.org/ns#"
   xmlns:rdf="http://www.w3.org/1999/02/22-rdf-syntax-ns#"
   xmlns:svg="http://www.w3.org/2000/svg"
   xmlns="http://www.w3.org/2000/svg"
   version="1.1"
   id="svg2"
   xml:space="preserve"
   viewBox="-0.7304688 -0.4624023 516.00008 307.79608"
   height="307.79608"
   width="516.00006"><metadata
     id="metadata130"><rdf:rdf><cc:work
         rdf:about=""><dc:format>image/svg+xml</dc:format><dc:type
           rdf:resource="http://purl.org/dc/dcmitype/StillImage" /><dc:title /></cc:work></rdf:rdf><rdf:RDF><cc:Work
         rdf:about=""><dc:format>image/svg+xml</dc:format><dc:type
           rdf:resource="http://purl.org/dc/dcmitype/StillImage" /><dc:title></dc:title></cc:Work></rdf:RDF></metadata><defs
     id="defs128" /><path
     class="key"
     id="Db4"
     d="m 51.097082,10.037601 0,86.976303 0,89.123136 7.992201,0 7.992201,0 0,0.10262 5.328134,0 0,-0.10262 9.324234,0 9.324235,0 0,-89.123136 0,-86.976303 z"
     style="fill:#1a1a1a;stroke:#000000;stroke-width:1;stroke-opacity:1" /><path
     class="key"
     id="Eb4"
     d="m 113.70266,10.037601 0,86.976303 0,89.123136 8.67381,0 8.67383,0 0,0.10262 5.29693,0 0,-0.10262 8.65821,0 8.65822,0 0,-89.123136 0,-86.976303 z"
     style="fill:#1a1a1a;stroke:#000000;stroke-width:1;stroke-opacity:1" /><path
     class="key"
     id="Gb4"
     d="m 236.90339,10.037601 0.33562,86.638733 0.34081,88.785436 9.00683,0.3982 8.53334,0.37982 5.77042,0 0,-0.10262 8.65822,0 8.65821,0 0,-89.123133 0,-86.976169 z"
     style="fill:#1a1a1a;stroke:#000000;stroke-width:1;stroke-opacity:1" /><path
     class="key"
     id="Ab4"
     d="m 300.85141,10.037601 0,86.976303 0,89.123136 8.65822,0 8.65822,0 0,0.10262 5.32813,0 0,-0.10262 8.65822,0 8.65822,0 0,-89.123136 0,-86.976303 z"
     style="fill:#1a1a1a;stroke:#000000;stroke-width:1;stroke-opacity:1" /><path
     class="key"
     id="Bb4"
     d="m 363.44657,10.037601 0.33562,86.638733 0.34081,88.785436 9.00683,0.3982 8.53334,0.37982 5.77042,0 0,-0.10262 8.65822,0 8.65822,0 0,-89.123133 0,-86.976169 z"
     style="fill:#1a1a1a;stroke:#000000;stroke-width:1;stroke-opacity:1" /><path
     class="key"
     id="C4"
     d="m 67.046972,241.52596 0,-55.30656 -7.992201,0 -7.992202,0 0,-87.957433 0,-87.957428 -20.64652,0 -20.6465178,0 0,143.263991 0,143.264 28.6387188,0 28.638722,0 0,-55.30657 z"
     style="fill:#f9f9f9;stroke:#000000;stroke-width:1;stroke-opacity:1" /><path
     class="key"
     id="D4"
     d="m 130.66636,241.19279 0.34778,-54.97339 -8.673,0 -8.67299,0 0,-87.957433 0,-87.957428 -11.32229,0 -11.322285,0 0,87.957428 0,87.957433 -9.324235,0 -9.324234,0 0,54.41819 c 0,29.92992 0.411207,54.82947 0.913792,55.33229 0.502586,0.50282 13.539864,0.7527 28.971732,0.55533 l 28.05793,-0.35903 0.3478,-54.97339 z"
     style="fill:#f9f9f9;stroke:#000000;stroke-width:1;stroke-opacity:1" /><path
     class="key"
     id="E4"
     d="m 193.59015,153.56853 0,-143.263991 -19.9805,0 -19.9805,0 0,87.957428 0,87.957433 -8.65822,0 -8.65822,0 0,55.30656 0,55.30657 28.63872,0 28.63872,0 0,-143.264 z"
     style="fill:#f9f9f9;stroke:#000000;stroke-width:1;stroke-opacity:1" /><path
     class="key"
     id="F4"
     d="m 255.20948,241.2541 0.34773,-54.91223 -9.00594,-0.39434 -9.00596,-0.39448 -0.34259,-87.624255 -0.34258,-87.624256 -19.97093,0 -19.97092,0 0,142.375621 c 0,78.3065 0.41121,142.7869 0.91379,143.28972 0.50258,0.50282 13.53986,0.7527 28.97172,0.55533 l 28.05794,-0.35903 0.34774,-54.91208 z"
     style="fill:#f9f9f9;stroke:#000000;stroke-width:1;stroke-opacity:1" /><path
     class="key"
     id="G4"
     d="m 318.13334,241.52596 0,-55.30656 -8.65822,0 -8.65822,0 0,-87.957433 0,-87.957428 -11.32229,0 -11.32228,0 0,87.957428 0,87.957433 -8.65822,0 -8.65822,0 0,55.30656 0,55.30657 28.63872,0 28.63873,0 0,-55.30657 z"
     style="fill:#f9f9f9;stroke:#000000;stroke-width:1;stroke-opacity:1" /><path
     class="key"
     id="A4"
     d="m 381.75267,241.2541 0.34772,-54.91223 -9.00594,-0.39434 -9.00596,-0.39448 -0.34258,-87.624255 -0.34259,-87.624256 -11.31271,0 -11.31271,0 0,87.957428 0,87.957433 -8.65821,0 -8.65822,0 0,54.41819 c 0,29.92992 0.41121,54.82947 0.91379,55.33229 0.50259,0.50282 13.53986,0.7527 28.97173,0.55533 l 28.05794,-0.35903 0.34774,-54.91208 z"
     style="fill:#f9f9f9;stroke:#000000;stroke-width:1;stroke-opacity:1" /><path
     class="key"
     id="B4"
     d="m 444.67652,153.56853 0,-143.263991 -19.9805,0 -19.98051,0 0,87.957428 0,87.957433 -8.65822,0 -8.65821,0 0,55.30656 0,55.30657 28.63872,0 28.63872,0 0,-143.264 z"
     style="fill:#f9f9f9;stroke:#000000;stroke-width:1;stroke-opacity:1" /><path
     class="key"
     id="C5"
     d="m 447.49213,10.305698 0,143.263992 0,32.65087 0,55.30656 0,55.30657 28.63872,0 28.63872,0 0,-55.30657 0,-55.30656 0,-32.65087 0,-143.263992 -15.98441,0 -4.66211,0 -15.98441,0 -4.66211,0 -15.9844,0 z"
     style="fill:#f9f9f9;stroke:#000000;stroke-width:1;stroke-opacity:1" /></svg>